<?xml version="1.0" encoding="utf-8"?>
<!-- Generator: Adobe Illustrator 21.0.0, SVG Export Plug-In . SVG Version: 6.00 Build 0)  -->
<svg version="1.1" id="Layer_1" xmlns="http://www.w3.org/2000/svg" xmlns:xlink="http://www.w3.org/1999/xlink" x="0px" y="0px"
	 viewBox="0 0 61.5 63.4" style="enable-background:new 0 0 61.5 63.4;" xml:space="preserve">
<style type="text/css">
	.st0{fill:none;stroke:#000000;stroke-width:2;stroke-linecap:round;stroke-linejoin:round;stroke-miterlimit:10;}
	.st1{fill:#1E201D;}
	.st2{fill:none;stroke:#000000;stroke-width:0.5;stroke-miterlimit:10;}
	.st3{fill:#E9EAEB;}
	.st4{fill:none;stroke:#BCC0C4;stroke-width:2;stroke-miterlimit:10;}
	.st5{fill:#FFFFFF;stroke:#65BFB4;stroke-width:2;stroke-miterlimit:10;}
	.st6{fill:#C1E5E1;stroke:#65BFB4;stroke-width:2;stroke-miterlimit:10;}
	.st7{fill:none;stroke:#65BFB4;stroke-width:2;stroke-miterlimit:10;}
	.st8{fill:#C1E5E1;}
	.st9{fill:#FFFFFF;}
	.st10{fill:#E9EAEB;stroke:#65BFB4;stroke-width:2;stroke-miterlimit:10;}
	.st11{fill:none;stroke:#BCC0C4;stroke-width:2;stroke-linejoin:round;stroke-miterlimit:10;}
	.st12{fill:#E9EAEB;stroke:#65BFB4;stroke-width:2;stroke-linejoin:round;stroke-miterlimit:10;}
	.st13{fill:#C1E5E1;stroke:#C1E5E1;stroke-miterlimit:10;}
	.st14{fill:none;stroke:#65BFB4;stroke-width:2;stroke-linejoin:round;stroke-miterlimit:10;}
	.st15{fill:#FFFFFF;stroke:#65BFB4;stroke-width:2;stroke-linejoin:round;stroke-miterlimit:10;}
	.st16{stroke:#231F20;stroke-width:2;stroke-linecap:round;stroke-linejoin:round;stroke-miterlimit:10;}
</style>
<g>
	<circle class="st3" cx="30.9" cy="35.5" r="25.5"/>
	<rect x="21.4" y="9" class="st5" width="28" height="30"/>
	<path class="st7" d="M42.4,14V6.8c0-3.2-3.7-5.8-7-5.8c-3.3,0-7,2.5-7,5.8V14"/>
	<line class="st7" x1="30.4" y1="14" x2="26.4" y2="14"/>
	<line class="st7" x1="40.4" y1="14" x2="44.4" y2="14"/>
	<path class="st9" d="M55,30.2c-2.4,0.6-4.5,2-6.2,5.2L43.4,38l-0.2,0.1c-0.6-0.7-1.6-1.1-2.8-1.1c-2,0-2,0-5.8,0
		c-1.1,0-4.5-2-6.3-2c-0.8,0-5.6,0-7.4,0c-1.9,0-4.2,0.6-5.5,1.9c-2.1,2.1-7.3,7-7.9,7.5c3.3,2.8,10.1,9.3,11.6,10.6
		c2-2,2.8-3.9,4.5-3.9c1.7,0,16.6,0,18.3,0c1.5,0,9.8-7.6,10.9-8.8c1-1.1,6.5-8.2,7.7-11.1C59.6,30,57.5,29.6,55,30.2z"/>
	<path class="st7" d="M29.4,44c0,0,9,0,11,0c5,0,5-7,0-7c-2,0-2,0-5.8,0c-1.1,0-4.5-2-6.3-2c-0.8,0-5.6,0-7.4,0s-4.2,0.6-5.5,1.9
		c-2.1,2.1-7.3,7-7.9,7.5c3.3,2.8,10.1,9.3,11.6,10.6c2-2,2.8-3.9,4.5-3.9c1.7,0,16.6,0,18.3,0c1.5,0,9.8-7.6,10.9-8.8
		c1-1.1,6.5-8.2,7.7-11.1c-0.8-1.1-2.9-1.5-5.4-0.9c-2.4,0.6-4.5,2-6.2,5.2L43.4,38"/>
	<rect x="7.5" y="40.4" transform="matrix(0.707 -0.7072 0.7072 0.707 -32.4998 23.6936)" class="st6" width="9.6" height="21.3"/>
	<line class="st7" x1="7" y1="46" x2="9.6" y2="48.6"/>
	<line class="st4" x1="57.4" y1="15" x2="57.4" y2="17"/>
	<line class="st4" x1="57.4" y1="19" x2="57.4" y2="21"/>
	<line class="st4" x1="56.4" y1="18" x2="54.4" y2="18"/>
	<line class="st4" x1="60.4" y1="18" x2="58.4" y2="18"/>
	<line class="st4" x1="51.4" y1="54" x2="48.4" y2="54"/>
	<line class="st4" x1="58.4" y1="54" x2="55.4" y2="54"/>
	<line class="st4" x1="53.4" y1="56" x2="53.4" y2="59"/>
	<line class="st4" x1="53.4" y1="49" x2="53.4" y2="52"/>
	<line class="st4" x1="8.4" y1="17" x2="6.4" y2="19"/>
	<line class="st4" x1="13.4" y1="12" x2="11.4" y2="14"/>
	<line class="st4" x1="11.4" y1="17" x2="13.4" y2="19"/>
	<line class="st4" x1="6.4" y1="12" x2="8.4" y2="14"/>
</g>
</svg>
