<?xml version="1.0" encoding="utf-8"?>
<!-- Generator: Adobe Illustrator 21.0.0, SVG Export Plug-In . SVG Version: 6.00 Build 0)  -->
<svg version="1.1" id="Layer_1" xmlns="http://www.w3.org/2000/svg" xmlns:xlink="http://www.w3.org/1999/xlink" x="0px" y="0px"
	 viewBox="0 0 63 58.3" style="enable-background:new 0 0 63 58.3;" xml:space="preserve">
<style type="text/css">
	.st0{fill:none;stroke:#000000;stroke-width:2;stroke-linecap:round;stroke-linejoin:round;stroke-miterlimit:10;}
	.st1{fill:#1E201D;}
	.st2{fill:none;stroke:#000000;stroke-width:0.5;stroke-miterlimit:10;}
	.st3{fill:#E9EAEB;}
	.st4{fill:none;stroke:#BCC0C4;stroke-width:2;stroke-miterlimit:10;}
	.st5{fill:#FFFFFF;stroke:#65BFB4;stroke-width:2;stroke-miterlimit:10;}
	.st6{fill:#C1E5E1;stroke:#65BFB4;stroke-width:2;stroke-miterlimit:10;}
	.st7{fill:none;stroke:#65BFB4;stroke-width:2;stroke-miterlimit:10;}
	.st8{fill:#C1E5E1;}
	.st9{fill:#FFFFFF;}
	.st10{fill:#E9EAEB;stroke:#65BFB4;stroke-width:2;stroke-miterlimit:10;}
	.st11{fill:none;stroke:#BCC0C4;stroke-width:2;stroke-linejoin:round;stroke-miterlimit:10;}
	.st12{fill:#E9EAEB;stroke:#65BFB4;stroke-width:2;stroke-linejoin:round;stroke-miterlimit:10;}
	.st13{fill:#C1E5E1;stroke:#C1E5E1;stroke-miterlimit:10;}
	.st14{fill:none;stroke:#65BFB4;stroke-width:2;stroke-linejoin:round;stroke-miterlimit:10;}
	.st15{fill:#FFFFFF;stroke:#65BFB4;stroke-width:2;stroke-linejoin:round;stroke-miterlimit:10;}
	.st16{stroke:#231F20;stroke-width:2;stroke-linecap:round;stroke-linejoin:round;stroke-miterlimit:10;}
</style>
<g>
	<circle class="st3" cx="31" cy="32" r="26"/>
	<path class="st7" d="M42,32V22c0-4-7.3-6-11-6c-3.7,0-11,2-11,6v10"/>
	<line class="st7" x1="37" y1="32" x2="37" y2="23"/>
	<line class="st7" x1="25" y1="23" x2="25" y2="32"/>
	<path class="st5" d="M31,12.9c2.8,0,5-2.3,5-5.1V6.1C36,3.3,33.8,1,31,1c-2.8,0-5,2.3-5,5.1v1.7C26,10.6,28.2,12.9,31,12.9z"/>
	<path class="st8" d="M24.7,41.3C24,39.3,22.1,38,20,38h-6v-7l2,2c0,0,4.3,0,7,0c4.6,0,4-5,4-5h-7l-7-7H9c-2.2,0-4,1.8-4,4v15
		c0,3.3,2.7,6,6,6h8l4,12h5.5L24.7,41.3z"/>
	<path class="st5" d="M12,17.9c-2.8,0-5-2.3-5-5.1v-1.7C7,8.3,9.2,6,12,6c2.8,0,5,2.3,5,5.1v1.7C17,15.6,14.8,17.9,12,17.9z"/>
	<path class="st7" d="M23,58l-4-12h-8c-3.3,0-6-2.7-6-6V25c0-2.2,1.8-4,4-4h4l7,7h7c0,0,0.6,5-4,5c-2.7,0-7,0-7,0l-6-6"/>
	<path class="st7" d="M14,31v7h6c2.1,0,4,1.3,4.7,3.3L28.5,58"/>
	<path class="st9" d="M53.5,21h-4l-7,7h-7c0,0-0.6,5,4,5c2.7,0,7,0,7,0l2.5-2v7h-6.5c-2.1,0-4,1.3-4.7,3.3L34,58h5.5l4-12h8
		c3.3,0,6.5-2.7,6.5-6V25C58,22.8,55.8,21,53.5,21z"/>
	<path class="st5" d="M51,17.9c2.8,0,5-2.3,5-5.1v-1.7C56,8.3,53.8,6,51,6c-2.8,0-5,2.3-5,5.1v1.7C46,15.6,48.2,17.9,51,17.9z"/>
	<path class="st7" d="M39.5,58l4-12h8c3.3,0,6.5-2.7,6.5-6V25c0-2.2-2.2-4-4.5-4h-4l-7,7h-7c0,0-0.6,5,4,5c2.7,0,7,0,7,0l6-6"/>
	<path class="st7" d="M49,31v7h-6.5c-2.1,0-4,1.3-4.7,3.3L34.2,58"/>
	<line class="st7" x1="14" y1="33" x2="49" y2="33"/>
	<path class="st7" d="M46,50h6c5.5,0,10-4.5,10-10V21"/>
	<path class="st7" d="M17,50h-6C5.5,50,1,45.5,1,40V21"/>
</g>
</svg>
