<?xml version="1.0" encoding="utf-8"?>
<!-- Generator: Adobe Illustrator 21.0.0, SVG Export Plug-In . SVG Version: 6.00 Build 0)  -->
<svg version="1.1" id="Layer_1" xmlns="http://www.w3.org/2000/svg" xmlns:xlink="http://www.w3.org/1999/xlink" x="0px" y="0px"
	 viewBox="0 0 69.9 69.8" style="enable-background:new 0 0 69.9 69.8;" xml:space="preserve">
<style type="text/css">
	.st0{fill:none;stroke:#000000;stroke-width:2;stroke-linecap:round;stroke-linejoin:round;stroke-miterlimit:10;}
	.st1{fill:#1E201D;}
	.st2{fill:none;stroke:#000000;stroke-width:0.5;stroke-miterlimit:10;}
	.st3{fill:#E9EAEB;}
	.st4{fill:none;stroke:#BCC0C4;stroke-width:2;stroke-miterlimit:10;}
	.st5{fill:#FFFFFF;stroke:#65BFB4;stroke-width:2;stroke-miterlimit:10;}
	.st6{fill:#C1E5E1;stroke:#65BFB4;stroke-width:2;stroke-miterlimit:10;}
	.st7{fill:none;stroke:#65BFB4;stroke-width:2;stroke-miterlimit:10;}
	.st8{fill:#C1E5E1;}
	.st9{fill:#FFFFFF;}
	.st10{fill:#E9EAEB;stroke:#65BFB4;stroke-width:2;stroke-miterlimit:10;}
	.st11{fill:none;stroke:#BCC0C4;stroke-width:2;stroke-linejoin:round;stroke-miterlimit:10;}
	.st12{fill:#E9EAEB;stroke:#65BFB4;stroke-width:2;stroke-linejoin:round;stroke-miterlimit:10;}
	.st13{fill:#C1E5E1;stroke:#C1E5E1;stroke-miterlimit:10;}
	.st14{fill:none;stroke:#65BFB4;stroke-width:2;stroke-linejoin:round;stroke-miterlimit:10;}
	.st15{fill:#FFFFFF;stroke:#65BFB4;stroke-width:2;stroke-linejoin:round;stroke-miterlimit:10;}
	.st16{stroke:#231F20;stroke-width:2;stroke-linecap:round;stroke-linejoin:round;stroke-miterlimit:10;}
</style>
<g>
	<circle class="st9" cx="38.7" cy="36.7" r="24.4"/>
	<path class="st7" d="M14.3,35.5c0.1-2.1,0.5-4.1,1-5.9"/>
	<path class="st7" d="M15.7,45c-0.7-1.9-1.1-3.9-1.3-5.9"/>
	<path class="st7" d="M16.7,26c4-8.1,12.3-13.7,21.9-13.7c13.5,0,24.4,10.9,24.4,24.4S52.1,61.1,38.7,61.1c-9.1,0-17.1-5-21.3-12.5"
		/>
	<path class="st7" d="M26.1,23.6c3.3-3.1,7.7-5.1,12.6-5.1c10,0,18.1,8.1,18.1,18.1s-8.1,18.1-18.1,18.1c-4.8,0-9.2-1.9-12.5-5"/>
	<circle class="st3" cx="38.1" cy="36.7" r="13.1"/>
	<line class="st4" x1="26.2" y1="4.6" x2="19" y2="4.6"/>
	<path class="st4" d="M69,25.7C66.6,19,62.1,13.4,56.2,9.6c-2-1.3-4-2.3-6.3-3.1"/>
	<path class="st4" d="M65.4,56c-5.8,7.8-15.1,12.8-25.5,12.8H23.8"/>
	<polyline class="st7" points="35.7,9.3 35.7,5.8 41.6,5.8 41.6,9.3 	"/>
	<rect x="32.1" y="1" class="st6" width="13.1" height="4.8"/>
	<line class="st7" x1="5.9" y1="26" x2="22.6" y2="26"/>
	<line class="st7" x1="0" y1="35.5" x2="19" y2="35.5"/>
	<line class="st7" x1="4.8" y1="45" x2="21.4" y2="45"/>
	<line class="st7" x1="41.4" y1="33.8" x2="48.8" y2="26"/>
	<line class="st4" x1="21.4" y1="68.8" x2="16.7" y2="68.8"/>
	<line class="st4" x1="14.3" y1="68.8" x2="11.9" y2="68.8"/>
	<line class="st4" x1="16.7" y1="4.6" x2="11.9" y2="4.6"/>
	<line class="st4" x1="9.5" y1="4.6" x2="7.1" y2="4.6"/>
	<circle class="st6" cx="38.7" cy="36.7" r="3.3"/>
	<g>
		<line class="st7" x1="21.7" y1="13.1" x2="17.3" y2="17.4"/>
		<line class="st7" x1="19.5" y1="15.2" x2="22.6" y2="18.3"/>
	</g>
</g>
</svg>
