<?xml version="1.0" encoding="utf-8"?>
<!-- Generator: Adobe Illustrator 21.0.0, SVG Export Plug-In . SVG Version: 6.00 Build 0)  -->
<svg version="1.1" id="Layer_1" xmlns="http://www.w3.org/2000/svg" xmlns:xlink="http://www.w3.org/1999/xlink" x="0px" y="0px"
	 viewBox="0 0 92.5 88" style="enable-background:new 0 0 92.5 88;" xml:space="preserve">
<style type="text/css">
	.st0{fill:none;stroke:#000000;stroke-width:2;stroke-linecap:round;stroke-linejoin:round;stroke-miterlimit:10;}
	.st1{fill:#1E201D;}
	.st2{fill:none;stroke:#000000;stroke-width:0.5;stroke-miterlimit:10;}
	.st3{fill:#E9EAEB;}
	.st4{fill:none;stroke:#BCC0C4;stroke-width:2;stroke-miterlimit:10;}
	.st5{fill:#FFFFFF;stroke:#65BFB4;stroke-width:2;stroke-miterlimit:10;}
	.st6{fill:#C1E5E1;stroke:#65BFB4;stroke-width:2;stroke-miterlimit:10;}
	.st7{fill:none;stroke:#65BFB4;stroke-width:2;stroke-miterlimit:10;}
	.st8{fill:#C1E5E1;}
	.st9{fill:#FFFFFF;}
	.st10{fill:#E9EAEB;stroke:#65BFB4;stroke-width:2;stroke-miterlimit:10;}
	.st11{fill:none;stroke:#BCC0C4;stroke-width:2;stroke-linejoin:round;stroke-miterlimit:10;}
	.st12{fill:#E9EAEB;stroke:#65BFB4;stroke-width:2;stroke-linejoin:round;stroke-miterlimit:10;}
	.st13{fill:#C1E5E1;stroke:#C1E5E1;stroke-miterlimit:10;}
	.st14{fill:none;stroke:#65BFB4;stroke-width:2;stroke-linejoin:round;stroke-miterlimit:10;}
	.st15{fill:#FFFFFF;stroke:#65BFB4;stroke-width:2;stroke-linejoin:round;stroke-miterlimit:10;}
	.st16{stroke:#231F20;stroke-width:2;stroke-linecap:round;stroke-linejoin:round;stroke-miterlimit:10;}
</style>
<g>
	<circle class="st3" cx="36" cy="36" r="36"/>
	<path class="st13" d="M88.5,12h-57c-1.7,0-3,1.3-3,3v69c0,1.7,1.3,3,3,3h57c1.7,0,3-1.3,3-3V15C91.5,13.3,90.2,12,88.5,12z"/>
	<path class="st7" d="M28.5,34.5V15c0-1.7,1.3-3,3-3h57c1.7,0,3,1.3,3,3v69c0,1.7-1.3,3-3,3h-57c-1.7,0-3-1.3-3-3V58.5"/>
	<rect x="34.5" y="18" class="st9" width="51" height="63"/>
	<line class="st7" x1="55.5" y1="34.5" x2="76.5" y2="34.5"/>
	<line class="st7" x1="55.5" y1="43.5" x2="76.5" y2="43.5"/>
	<polyline class="st7" points="51,31.5 48.3,37.5 48,37.5 48,37.5 45,34.5 	"/>
	<polyline class="st7" points="51,40.5 48.3,46.5 48,46.5 48,46.5 45,43.5 	"/>
	<polyline class="st7" points="34.5,40.5 34.5,18 85.5,18 85.5,81 34.5,81 34.5,64.5 	"/>
	<g>
		<path class="st5" d="M72,10.5h-6V9.3c0-3.1-2.3-5.9-5.4-6.2C57,2.7,54,5.5,54,9v1.5h-6c-2.5,0-4.5,2-4.5,4.5v6h33v-6
			C76.5,12.5,74.5,10.5,72,10.5z"/>
		<line class="st7" x1="60" y1="7.5" x2="60" y2="10.5"/>
	</g>
	<g>
		<path class="st14" d="M15.8,29.3l-2.4-2.4c-1.2-1.2-3.1-1.2-4.2,0l-0.3,0.3c-1.2,1.2-1.2,3.1,0,4.2l2.4,2.4"/>
		<polygon class="st15" points="10.5,34.5 45,69 57,75 51,63 16.5,28.5 		"/>
		<line class="st15" x1="51" y1="63" x2="45" y2="69"/>
		<line class="st14" x1="21" y1="33" x2="10.5" y2="43.5"/>
		<line class="st14" x1="6" y1="39" x2="21" y2="54"/>
	</g>
</g>
</svg>
