<?xml version="1.0" encoding="utf-8"?>
<!-- Generator: Adobe Illustrator 21.0.0, SVG Export Plug-In . SVG Version: 6.00 Build 0)  -->
<svg version="1.1" id="Layer_1" xmlns="http://www.w3.org/2000/svg" xmlns:xlink="http://www.w3.org/1999/xlink" x="0px" y="0px"
	 viewBox="0 0 93.3 85" style="enable-background:new 0 0 93.3 85;" xml:space="preserve">
<style type="text/css">
	.st0{fill:none;stroke:#000000;stroke-width:2;stroke-linecap:round;stroke-linejoin:round;stroke-miterlimit:10;}
	.st1{fill:#1E201D;}
	.st2{fill:none;stroke:#000000;stroke-width:0.5;stroke-miterlimit:10;}
	.st3{fill:#E9EAEB;}
	.st4{fill:none;stroke:#BCC0C4;stroke-width:2;stroke-miterlimit:10;}
	.st5{fill:#FFFFFF;stroke:#65BFB4;stroke-width:2;stroke-miterlimit:10;}
	.st6{fill:#C1E5E1;stroke:#65BFB4;stroke-width:2;stroke-miterlimit:10;}
	.st7{fill:none;stroke:#65BFB4;stroke-width:2;stroke-miterlimit:10;}
	.st8{fill:#C1E5E1;}
	.st9{fill:#FFFFFF;}
	.st10{fill:#E9EAEB;stroke:#65BFB4;stroke-width:2;stroke-miterlimit:10;}
	.st11{fill:none;stroke:#BCC0C4;stroke-width:2;stroke-linejoin:round;stroke-miterlimit:10;}
	.st12{fill:#E9EAEB;stroke:#65BFB4;stroke-width:2;stroke-linejoin:round;stroke-miterlimit:10;}
	.st13{fill:#C1E5E1;stroke:#C1E5E1;stroke-miterlimit:10;}
	.st14{fill:none;stroke:#65BFB4;stroke-width:2;stroke-linejoin:round;stroke-miterlimit:10;}
	.st15{fill:#FFFFFF;stroke:#65BFB4;stroke-width:2;stroke-linejoin:round;stroke-miterlimit:10;}
	.st16{stroke:#231F20;stroke-width:2;stroke-linecap:round;stroke-linejoin:round;stroke-miterlimit:10;}
</style>
<g>
	<path class="st6" d="M59.1,23.6l-3.8-9.2l-5.6,1.9c-1.6-2.2-3.4-4-5.6-5.5L46,5.1l-9.2-3.8l-2.6,5.3c-2.6-0.4-5.2-0.4-7.9,0
		l-2.6-5.3l-9.2,3.8l1.9,5.6c-2.2,1.6-4,3.4-5.5,5.6l-5.6-1.9l-3.8,9.2l5.3,2.6c-0.4,2.6-0.4,5.2,0,7.9l-5.3,2.6L5.1,46l5.6-1.9
		c1.6,2.2,3.4,4,5.6,5.5l-1.9,5.6l9.2,3.8l2.6-5.3c2.6,0.4,5.2,0.4,7.9,0l2.6,5.3l9.2-3.8l-1.9-5.6c2.2-1.6,4-3.4,5.5-5.6l5.6,1.9
		l3.8-9.2l-5.3-2.6c0.4-2.6,0.4-5.2,0-7.9L59.1,23.6z"/>
	<ellipse transform="matrix(0.3828 -0.9238 0.9238 0.3828 -9.2568 46.5075)" class="st5" cx="30.2" cy="30.2" rx="9.6" ry="9.6"/>
	<path class="st11" d="M66.6,27.9c1.4-3.4,5.3-5,8.6-3.6c3.4,1.4,5,5.3,3.6,8.6c-0.6,1.4-1.6,2.5-2.8,3.2"/>
	<path class="st12" d="M91.2,59.8l-2.6-6.3l-4.9,2c-1-1.4-2.2-2.5-3.5-3.5l2-4.9l-6.3-2.6l-2,4.9c-1.6-0.3-3.3-0.3-5,0l-2-4.9
		l-6.3,2.6l2,4.9c-1.4,1-2.5,2.2-3.5,3.5l-4.9-2l-2.6,6.3l4.9,2c-0.3,1.6-0.3,3.3,0,5l-4.9,2l2.6,6.3l4.9-2c1,1.4,2.2,2.5,3.5,3.5
		l-2,4.9l6.3,2.6l2-4.9c1.6,0.3,3.3,0.3,5,0l2,4.9l6.3-2.6l-2-4.9c1.4-1,2.5-2.2,3.5-3.5l4.9,2l2.6-6.3l-4.9-2c0.3-1.6,0.3-3.3,0-5
		L91.2,59.8z"/>
	<path class="st11" d="M84.2,39.6l4.7,2.3l2.9-6l-4.7-2.3c0.4-1.6,0.5-3.2,0.3-4.9l4.9-1.7l-2.2-6.3l-4.9,1.7
		c-0.9-1.4-2-2.6-3.2-3.6l2.3-4.7l-6-2.9L76,15.8c-1.6-0.4-3.2-0.5-4.9-0.3l-1.7-4.9l-6.3,2.2l1.7,4.9"/>
	<ellipse transform="matrix(0.9239 -0.3827 0.3827 0.9239 -19.157 32.2311)" class="st5" cx="71.4" cy="64.3" rx="6.6" ry="6.6"/>
</g>
</svg>
