<?xml version="1.0" encoding="utf-8"?>
<!-- Generator: Adobe Illustrator 21.0.0, SVG Export Plug-In . SVG Version: 6.00 Build 0)  -->
<svg version="1.1" id="Layer_1" xmlns="http://www.w3.org/2000/svg" xmlns:xlink="http://www.w3.org/1999/xlink" x="0px" y="0px"
	 viewBox="0 0 87 86.6" style="enable-background:new 0 0 87 86.6;" xml:space="preserve">
<style type="text/css">
	.st0{fill:none;stroke:#000000;stroke-width:2;stroke-linecap:round;stroke-linejoin:round;stroke-miterlimit:10;}
	.st1{fill:#1E201D;}
	.st2{fill:none;stroke:#000000;stroke-width:0.5;stroke-miterlimit:10;}
	.st3{fill:#E9EAEB;}
	.st4{fill:none;stroke:#BCC0C4;stroke-width:2;stroke-miterlimit:10;}
	.st5{fill:#FFFFFF;stroke:#65BFB4;stroke-width:2;stroke-miterlimit:10;}
	.st6{fill:#C1E5E1;stroke:#65BFB4;stroke-width:2;stroke-miterlimit:10;}
	.st7{fill:none;stroke:#65BFB4;stroke-width:2;stroke-miterlimit:10;}
	.st8{fill:#C1E5E1;}
	.st9{fill:#FFFFFF;}
	.st10{fill:#E9EAEB;stroke:#65BFB4;stroke-width:2;stroke-miterlimit:10;}
	.st11{fill:none;stroke:#BCC0C4;stroke-width:2;stroke-linejoin:round;stroke-miterlimit:10;}
	.st12{fill:#E9EAEB;stroke:#65BFB4;stroke-width:2;stroke-linejoin:round;stroke-miterlimit:10;}
	.st13{fill:#C1E5E1;stroke:#C1E5E1;stroke-miterlimit:10;}
	.st14{fill:none;stroke:#65BFB4;stroke-width:2;stroke-linejoin:round;stroke-miterlimit:10;}
	.st15{fill:#FFFFFF;stroke:#65BFB4;stroke-width:2;stroke-linejoin:round;stroke-miterlimit:10;}
	.st16{stroke:#231F20;stroke-width:2;stroke-linecap:round;stroke-linejoin:round;stroke-miterlimit:10;}
</style>
<g>
	<path class="st5" d="M67.2,55.7L47.7,36.1H32.3L21,24.8L5.6,40.3l7,7c0.6,2.1,2.6,4.4,3.7,5.2l19,19.2l2.4,2.4c3.6,3.6,7,1,8.7-2
		c3.3,1.7,7-0.2,8.3-2.8c4.2,2.1,7.9-2.2,7.6-4.4C66.9,64.6,70.3,59.9,67.2,55.7z"/>
	<path class="st10" d="M64.5,26.2c0,0-5.7,5.4-7,5.6c-1.7,0.3-9.3-3.3-10.8-3.7c-1.5-0.4-16.9,4.5-18,6.3c-1.1,1.8,3.4,6.2,7.7,5.7
		c4.4-0.6,10.8-2.9,12.7-1c3.1,3.1,12,12.4,16.2,16.1c3.5,3.1,9.6-7.6,11.1-9.3c0,0,2.8-2,4.8-3.5L64.5,26.2z"/>
	<g>
		<line class="st7" x1="46.5" y1="72.1" x2="40" y2="65.5"/>
		<line class="st7" x1="54.8" y1="69.3" x2="45.3" y2="59.8"/>
		<line class="st7" x1="62.4" y1="64.9" x2="51.2" y2="53.7"/>
	</g>
	<g>
		
			<rect x="67.3" y="20.1" transform="matrix(0.7071 -0.7071 0.7071 0.7071 -2.8532 61.0166)" class="st6" width="9.9" height="27.8"/>
		<line class="st6" x1="65.9" y1="27.6" x2="68.7" y2="30.4"/>
	</g>
	<g>
		<rect x="0.9" y="29" transform="matrix(0.7071 -0.7071 0.7071 0.7071 -19.6921 20.364)" class="st6" width="27.8" height="9.9"/>
		<line class="st6" x1="21" y1="27.6" x2="18.2" y2="30.4"/>
	</g>
	<g>
		<path class="st4" d="M33.6,85.7L33.6,85.7C16.5,81.7,4.2,68.1,1.1,52"/>
		<path class="st4" d="M52.8,85.7C68.3,82.1,81.2,70,85,53.5"/>
		<path class="st4" d="M74.6,14.6c-5.6-6-13.1-10.5-21.7-12.5C37.4-1.5,22,3.8,11.8,14.6"/>
	</g>
	<path class="st10" d="M27.4,72.2c1.1,1.1,2.9,1.1,4,0l3-3c1.2-1.2,0.9-3.1-0.5-4.5c-1.4-1.4-3.3-1.7-4.5-0.5
		c1.2-1.2,0.9-3.1-0.5-4.5c-1.4-1.4-3.3-1.7-4.5-0.5c1.2-1.2,0.9-3.1-0.5-4.5c-1.4-1.4-3.3-1.7-4.5-0.5c1.2-1.2,0.9-3.1-0.5-4.5
		c-1.4-1.4-3.3-1.7-4.5-0.5l-3,3c-1.1,1.1-1.1,2.9,0,4L27.4,72.2z"/>
	<g>
		<line class="st7" x1="35.1" y1="22" x2="32.3" y2="19.2"/>
		<line class="st7" x1="40.7" y1="19.2" x2="39.3" y2="15"/>
		<line class="st7" x1="46.3" y1="19.2" x2="47.7" y2="15"/>
		<line class="st7" x1="51.9" y1="22" x2="54.7" y2="19.2"/>
	</g>
</g>
</svg>
