<?xml version="1.0" encoding="utf-8"?>
<!-- Generator: Adobe Illustrator 21.0.0, SVG Export Plug-In . SVG Version: 6.00 Build 0)  -->
<svg version="1.1" id="Layer_1" xmlns="http://www.w3.org/2000/svg" xmlns:xlink="http://www.w3.org/1999/xlink" x="0px" y="0px"
	 viewBox="0 0 104.8 80.5" style="enable-background:new 0 0 104.8 80.5;" xml:space="preserve">
<style type="text/css">
	.st0{fill:none;stroke:#000000;stroke-width:2;stroke-linecap:round;stroke-linejoin:round;stroke-miterlimit:10;}
	.st1{fill:#1E201D;}
	.st2{fill:none;stroke:#000000;stroke-width:0.5;stroke-miterlimit:10;}
	.st3{fill:#E9EAEB;}
	.st4{fill:none;stroke:#BCC0C4;stroke-width:2;stroke-miterlimit:10;}
	.st5{fill:#FFFFFF;stroke:#65BFB4;stroke-width:2;stroke-miterlimit:10;}
	.st6{fill:#C1E5E1;stroke:#65BFB4;stroke-width:2;stroke-miterlimit:10;}
	.st7{fill:none;stroke:#65BFB4;stroke-width:2;stroke-miterlimit:10;}
	.st8{fill:#C1E5E1;}
	.st9{fill:#FFFFFF;}
	.st10{fill:#E9EAEB;stroke:#65BFB4;stroke-width:2;stroke-miterlimit:10;}
	.st11{fill:none;stroke:#BCC0C4;stroke-width:2;stroke-linejoin:round;stroke-miterlimit:10;}
	.st12{fill:#E9EAEB;stroke:#65BFB4;stroke-width:2;stroke-linejoin:round;stroke-miterlimit:10;}
	.st13{fill:#C1E5E1;stroke:#C1E5E1;stroke-miterlimit:10;}
	.st14{fill:none;stroke:#65BFB4;stroke-width:2;stroke-linejoin:round;stroke-miterlimit:10;}
	.st15{fill:#FFFFFF;stroke:#65BFB4;stroke-width:2;stroke-linejoin:round;stroke-miterlimit:10;}
	.st16{stroke:#231F20;stroke-width:2;stroke-linecap:round;stroke-linejoin:round;stroke-miterlimit:10;}
</style>
<g>
	<circle class="st3" cx="74.9" cy="29.4" r="28.8"/>
	<path class="st4" d="M64.2,8.8H48c-0.7-1.6-2.4-3-4.4-3c-0.6,0-1.2,0.1-1.8,0.3c-1.1-3-3.9-5.1-7.3-5.1c-4.3,0-7.8,4.5-7.8,7.8
		H11.5"/>
	<path class="st4" d="M103.7,17h-6.5c-1.1-1.6-3.3-3.4-6-3.1c-1.2-2-3.3-3.6-5.9-3.6c-3.7,0-6.8,3.3-6.8,6.6H62.6"/>
	<path class="st6" d="M102.1,64.8c0-1.9,0.8-9.1-3.9-10.2c-0.4-0.8-2.2-4.6-3.7-7.9c-1.4-3-4.4-5-7.8-5H74.1V73h27.3
		c0,0,2.3-1.6,2.3-3.3C103.7,68,104.1,65.3,102.1,64.8z"/>
	<path class="st7" d="M74.1,73h27.3c0,0,2.3-1.6,2.3-3.3c0-1.7,0.4-4.4-1.6-4.9c0-1.9,0.8-9.1-3.9-10.2c-0.4-0.8-2.2-4.6-3.7-7.9
		c-1.4-3-4.4-5-7.8-5H74.1"/>
	<path class="st5" d="M90.6,54.7L87.9,49c-0.2-0.4-0.6-0.7-1.1-0.7h-6.1v8.2h8.8C90.4,56.5,91,55.6,90.6,54.7z"/>
	<polygon class="st9" points="21.4,26.9 21.4,40.1 21.4,58.2 21.4,73 74.1,73 74.1,26.9 	"/>
	<polyline class="st7" points="21.4,40.1 21.4,26.9 74.1,26.9 74.1,73 21.4,73 21.4,58.2 	"/>
	<line class="st7" x1="21.4" y1="54.9" x2="21.4" y2="45"/>
	<ellipse class="st10" cx="36.2" cy="73" rx="6.6" ry="6.6"/>
	<ellipse class="st10" cx="85.6" cy="73" rx="6.6" ry="6.6"/>
	<line class="st7" x1="37.9" y1="53.2" x2="6.6" y2="53.2"/>
	<line class="st7" x1="56" y1="40.1" x2="14.8" y2="40.1"/>
	<line class="st7" x1="65.9" y1="26.9" x2="14.8" y2="26.9"/>
	<line class="st7" x1="11.5" y1="26.9" x2="8.2" y2="26.9"/>
	<line class="st7" x1="4.9" y1="26.9" x2="1.6" y2="26.9"/>
	<line class="st7" x1="3.3" y1="53.2" x2="0" y2="53.2"/>
	<line class="st7" x1="11.5" y1="40.1" x2="8.2" y2="40.1"/>
</g>
</svg>
