<?xml version="1.0" encoding="utf-8"?>
<!-- Generator: Adobe Illustrator 21.0.0, SVG Export Plug-In . SVG Version: 6.00 Build 0)  -->
<svg version="1.1" id="Layer_1" xmlns="http://www.w3.org/2000/svg" xmlns:xlink="http://www.w3.org/1999/xlink" x="0px" y="0px"
	 viewBox="0 0 62.8 57.3" style="enable-background:new 0 0 62.8 57.3;" xml:space="preserve">
<style type="text/css">
	.st0{fill:none;stroke:#000000;stroke-width:2;stroke-linecap:round;stroke-linejoin:round;stroke-miterlimit:10;}
	.st1{fill:#1E201D;}
	.st2{fill:none;stroke:#000000;stroke-width:0.5;stroke-miterlimit:10;}
	.st3{fill:#E9EAEB;}
	.st4{fill:none;stroke:#BCC0C4;stroke-width:2;stroke-miterlimit:10;}
	.st5{fill:#FFFFFF;stroke:#65BFB4;stroke-width:2;stroke-miterlimit:10;}
	.st6{fill:#C1E5E1;stroke:#65BFB4;stroke-width:2;stroke-miterlimit:10;}
	.st7{fill:none;stroke:#65BFB4;stroke-width:2;stroke-miterlimit:10;}
	.st8{fill:#C1E5E1;}
	.st9{fill:#FFFFFF;}
	.st10{fill:#E9EAEB;stroke:#65BFB4;stroke-width:2;stroke-miterlimit:10;}
	.st11{fill:none;stroke:#BCC0C4;stroke-width:2;stroke-linejoin:round;stroke-miterlimit:10;}
	.st12{fill:#E9EAEB;stroke:#65BFB4;stroke-width:2;stroke-linejoin:round;stroke-miterlimit:10;}
	.st13{fill:#C1E5E1;stroke:#C1E5E1;stroke-miterlimit:10;}
	.st14{fill:none;stroke:#65BFB4;stroke-width:2;stroke-linejoin:round;stroke-miterlimit:10;}
	.st15{fill:#FFFFFF;stroke:#65BFB4;stroke-width:2;stroke-linejoin:round;stroke-miterlimit:10;}
	.st16{stroke:#231F20;stroke-width:2;stroke-linecap:round;stroke-linejoin:round;stroke-miterlimit:10;}
</style>
<g>
	<path class="st6" d="M39.7,16.1L37.2,10l-3.7,1.2c-1-1.4-2.3-2.7-3.7-3.7L31,3.8l-6.1-2.5l-1.8,3.5c-1.7-0.3-3.5-0.3-5.2,0
		l-1.8-3.5L10,3.8l1.2,3.7c-1.4,1-2.7,2.3-3.7,3.7L3.8,10l-2.5,6.1l3.5,1.8c-0.3,1.7-0.3,3.5,0,5.2l-3.5,1.8L3.8,31l3.7-1.2
		c1,1.4,2.3,2.7,3.7,3.7L10,37.2l6.1,2.5l1.8-3.5c1.7,0.3,3.5,0.3,5.2,0l1.8,3.5l6.1-2.5l-1.2-3.7c1.4-1,2.7-2.3,3.7-3.7l3.7,1.2
		l2.5-6.1l-3.5-1.8c0.3-1.7,0.3-3.5,0-5.2L39.7,16.1z"/>
	<ellipse transform="matrix(0.3828 -0.9238 0.9238 0.3828 -6.2829 31.5665)" class="st5" cx="20.5" cy="20.5" rx="6.4" ry="6.4"/>
	<path class="st11" d="M44.7,19c0.9-2.2,3.5-3.3,5.7-2.4c2.2,0.9,3.3,3.5,2.4,5.7c-0.4,0.9-1.1,1.7-1.9,2.1"/>
	<path class="st12" d="M61,40.2L59.3,36l-3.2,1.3c-0.7-0.9-1.4-1.7-2.3-2.3l1.3-3.2L50.9,30l-1.3,3.2c-1.1-0.2-2.2-0.2-3.3,0
		L44.9,30l-4.2,1.7l1.3,3.2c-0.9,0.7-1.7,1.4-2.3,2.3L36.5,36l-1.7,4.2l3.2,1.3c-0.2,1.1-0.2,2.2,0,3.3l-3.2,1.3l1.7,4.2l3.2-1.3
		c0.7,0.9,1.4,1.7,2.3,2.3l-1.3,3.2l4.2,1.7l1.3-3.2c1.1,0.2,2.2,0.2,3.3,0l1.3,3.2l4.2-1.7l-1.3-3.2c0.9-0.7,1.7-1.4,2.3-2.3
		l3.2,1.3l1.7-4.2l-3.2-1.3c0.2-1.1,0.2-2.2,0-3.3L61,40.2z"/>
	<path class="st11" d="M56.4,26.8l3.1,1.5l2-4l-3.1-1.5c0.2-1,0.3-2.1,0.2-3.2l3.3-1.1l-1.5-4.2l-3.3,1.1c-0.6-0.9-1.3-1.7-2.1-2.4
		l1.5-3.1l-4-2l-1.5,3.1c-1-0.2-2.1-0.3-3.2-0.2l-1.1-3.3l-4.2,1.5l1.1,3.3"/>
	<ellipse transform="matrix(0.9239 -0.3827 0.3827 0.9239 -12.8616 21.6148)" class="st5" cx="47.9" cy="43.1" rx="4.4" ry="4.4"/>
</g>
</svg>
