<?xml version="1.0" encoding="utf-8"?>
<!-- Generator: Adobe Illustrator 21.0.0, SVG Export Plug-In . SVG Version: 6.00 Build 0)  -->
<svg version="1.1" id="Layer_1" xmlns="http://www.w3.org/2000/svg" xmlns:xlink="http://www.w3.org/1999/xlink" x="0px" y="0px"
	 viewBox="0 0 58.2 57" style="enable-background:new 0 0 58.2 57;" xml:space="preserve">
<style type="text/css">
	.st0{fill:none;stroke:#000000;stroke-width:2;stroke-linecap:round;stroke-linejoin:round;stroke-miterlimit:10;}
	.st1{fill:#1E201D;}
	.st2{fill:none;stroke:#000000;stroke-width:0.5;stroke-miterlimit:10;}
	.st3{fill:#E9EAEB;}
	.st4{fill:none;stroke:#BCC0C4;stroke-width:2;stroke-miterlimit:10;}
	.st5{fill:#FFFFFF;stroke:#65BFB4;stroke-width:2;stroke-miterlimit:10;}
	.st6{fill:#C1E5E1;stroke:#65BFB4;stroke-width:2;stroke-miterlimit:10;}
	.st7{fill:none;stroke:#65BFB4;stroke-width:2;stroke-miterlimit:10;}
	.st8{fill:#C1E5E1;}
	.st9{fill:#FFFFFF;}
	.st10{fill:#E9EAEB;stroke:#65BFB4;stroke-width:2;stroke-miterlimit:10;}
	.st11{fill:none;stroke:#BCC0C4;stroke-width:2;stroke-linejoin:round;stroke-miterlimit:10;}
	.st12{fill:#E9EAEB;stroke:#65BFB4;stroke-width:2;stroke-linejoin:round;stroke-miterlimit:10;}
	.st13{fill:#C1E5E1;stroke:#C1E5E1;stroke-miterlimit:10;}
	.st14{fill:none;stroke:#65BFB4;stroke-width:2;stroke-linejoin:round;stroke-miterlimit:10;}
	.st15{fill:#FFFFFF;stroke:#65BFB4;stroke-width:2;stroke-linejoin:round;stroke-miterlimit:10;}
	.st16{stroke:#231F20;stroke-width:2;stroke-linecap:round;stroke-linejoin:round;stroke-miterlimit:10;}
</style>
<g>
	<circle class="st3" cx="29" cy="24" r="24"/>
	<path class="st9" d="M57.2,26.9c-0.1-1.2-1-8-1.9-10.3c-1-0.1-2.4,0.7-3.4,2.4c-1,1.6-1.4,3.5-0.5,6.1l-1.2,4.6
		c-0.8-0.2-1.8,0-2.7,0.9c-0.8,0.8-2.1,2.1-4.1,4.1c-0.6,0.6-3.4,0.4-4.4,1.3c-0.4,0.4-2.4,2.5-3.4,3.5c-1,1-1.4,3.2-1.4,4.5
		c0,2.2,0,7.9,0,7.9s9.7,0,11.4,0c0-2-0.3-3.3,0.8-4.5c0.9-0.9,9-8.9,9.9-9.9C56.5,36.4,57.3,28.2,57.2,26.9z"/>
	<path class="st7" d="M45.5,40.4c0,0,4.8-4.8,5.8-5.8c2.7-2.7-1.1-6.7-3.9-3.9c-0.8,0.8-2.1,2.1-4.1,4.1c-0.6,0.6-3.4,0.4-4.4,1.3
		c-0.4,0.4-2.4,2.5-3.4,3.5c-1,1-1.4,3.2-1.4,4.5c0,2.2,0,7.9,0,7.9s9.7,0,11.4,0c0-2-0.3-3.3,0.8-4.5c0.9-0.9,9-8.9,9.9-9.9
		c0.4-1.3,1.1-9.5,1-10.8c-0.1-1.2-1-8-1.9-10.3c-1-0.1-2.4,0.7-3.4,2.4c-1,1.6-1.4,3.5-0.5,6.1L50,30"/>
	<polyline class="st3" points="48,57 48,50 32,50 32,57 	"/>
	<polyline class="st7" points="48,57 48,50 32,50 32,57 	"/>
	<line class="st7" x1="35" y1="54" x2="38" y2="54"/>
	<path class="st9" d="M22.7,39.6c-1-1-2.9-3-3.3-3.5c-1-1-3.8-0.7-4.4-1.3c-2.1-2.1-3.3-3.3-4.1-4.1c-0.9-0.9-2-1.1-2.8-0.8
		l-1.1-4.7c0.8-2.6,0.5-4.5-0.5-6.1c-1.1-1.7-2.4-2.5-3.4-2.4C2,19,1.1,25.8,1,26.9c-0.1,1.2,0.7,9.5,1,10.8c0.9,0.9,9,8.9,9.9,9.9
		c1.1,1.1,0.8,2.5,0.8,4.5c1.7,0,11.2,0,11.2,0s0-5.6,0-7.9C24,42.8,23.7,40.6,22.7,39.6z"/>
	<path class="st7" d="M12.6,40.4c0,0-4.8-4.8-5.8-5.8c-2.7-2.7,1.1-6.7,3.9-3.9c0.8,0.8,2.1,2.1,4.1,4.1c0.6,0.6,3.4,0.4,4.4,1.3
		c0.4,0.4,2.3,2.5,3.3,3.5c1,1,1.3,3.2,1.3,4.5c0,2.2,0,7.9,0,7.9s-9.5,0-11.2,0c0-2,0.3-3.3-0.8-4.5c-0.9-0.9-9-8.9-9.9-9.9
		c-0.4-1.3-1.1-9.5-1-10.8c0.1-1.2,1-8,1.9-10.3c1-0.1,2.4,0.7,3.4,2.4c1,1.6,1.4,3.5,0.5,6.1L8,30"/>
	<polyline class="st3" points="10,57 10,50 26,50 26,57 	"/>
	<polyline class="st7" points="10,57 10,50 26,50 26,57 	"/>
	<line class="st7" x1="23" y1="54" x2="20" y2="54"/>
	<polygon class="st6" points="29,33 41,26.1 41,12.2 29,5 17,12.2 17,26.1 	"/>
	<polyline class="st7" points="21,14 29,19.2 37.1,14 	"/>
	<line class="st7" x1="29" y1="20" x2="29" y2="29"/>
</g>
</svg>
