<?xml version="1.0" encoding="utf-8"?>
<!-- Generator: Adobe Illustrator 21.0.0, SVG Export Plug-In . SVG Version: 6.00 Build 0)  -->
<svg version="1.1" id="Layer_1" xmlns="http://www.w3.org/2000/svg" xmlns:xlink="http://www.w3.org/1999/xlink" x="0px" y="0px"
	 viewBox="0 0 62.8 62.4" style="enable-background:new 0 0 62.8 62.4;" xml:space="preserve">
<style type="text/css">
	.st0{fill:none;stroke:#000000;stroke-width:2;stroke-linecap:round;stroke-linejoin:round;stroke-miterlimit:10;}
	.st1{fill:#1E201D;}
	.st2{fill:none;stroke:#000000;stroke-width:0.5;stroke-miterlimit:10;}
	.st3{fill:#E9EAEB;}
	.st4{fill:none;stroke:#BCC0C4;stroke-width:2;stroke-miterlimit:10;}
	.st5{fill:#FFFFFF;stroke:#65BFB4;stroke-width:2;stroke-miterlimit:10;}
	.st6{fill:#C1E5E1;stroke:#65BFB4;stroke-width:2;stroke-miterlimit:10;}
	.st7{fill:none;stroke:#65BFB4;stroke-width:2;stroke-miterlimit:10;}
	.st8{fill:#C1E5E1;}
	.st9{fill:#FFFFFF;}
	.st10{fill:#E9EAEB;stroke:#65BFB4;stroke-width:2;stroke-miterlimit:10;}
	.st11{fill:none;stroke:#BCC0C4;stroke-width:2;stroke-linejoin:round;stroke-miterlimit:10;}
	.st12{fill:#E9EAEB;stroke:#65BFB4;stroke-width:2;stroke-linejoin:round;stroke-miterlimit:10;}
	.st13{fill:#C1E5E1;stroke:#C1E5E1;stroke-miterlimit:10;}
	.st14{fill:none;stroke:#65BFB4;stroke-width:2;stroke-linejoin:round;stroke-miterlimit:10;}
	.st15{fill:#FFFFFF;stroke:#65BFB4;stroke-width:2;stroke-linejoin:round;stroke-miterlimit:10;}
	.st16{stroke:#231F20;stroke-width:2;stroke-linecap:round;stroke-linejoin:round;stroke-miterlimit:10;}
</style>
<g>
	<path class="st5" d="M48.3,40L34.4,26h-11l-8-8l-11,11l5,5c0.4,1.5,1.8,3.1,2.7,3.7l13.5,13.7l1.7,1.7c2.6,2.6,5,0.7,6.2-1.5
		c2.4,1.2,5-0.1,6-2c3,1.5,5.6-1.6,5.4-3.2C48.1,46.4,50.6,43,48.3,40z"/>
	<path class="st10" d="M46.4,19c0,0-4.1,3.9-5,4c-1.2,0.2-6.6-2.4-7.7-2.6c-1.1-0.3-12,3.2-12.8,4.5c-0.8,1.3,2.4,4.4,5.5,4
		c3.1-0.4,7.7-2,9.1-0.7c2.2,2.2,8.5,8.9,11.5,11.5c2.5,2.2,6.8-5.4,7.9-6.6c0,0,2-1.4,3.4-2.5L46.4,19z"/>
	<g>
		<line class="st7" x1="33.6" y1="51.7" x2="28.9" y2="47"/>
		<line class="st7" x1="39.5" y1="49.7" x2="32.7" y2="42.9"/>
		<line class="st7" x1="44.9" y1="46.6" x2="36.9" y2="38.6"/>
	</g>
	<g>
		
			<rect x="48.4" y="14.6" transform="matrix(0.7071 -0.7071 0.7071 0.7071 -2.1188 43.8848)" class="st6" width="7.1" height="19.8"/>
		<line class="st6" x1="47.4" y1="20" x2="49.4" y2="22"/>
	</g>
	<g>
		<rect x="1" y="21" transform="matrix(0.7071 -0.7071 0.7071 0.7071 -14.1274 14.8934)" class="st6" width="19.8" height="7.1"/>
		<line class="st6" x1="15.4" y1="20" x2="13.4" y2="22"/>
	</g>
	<g>
		<path class="st4" d="M24.3,61.4L24.3,61.4c-12.2-2.8-20.9-12.5-23.2-24"/>
		<path class="st4" d="M38.1,61.4c11-2.6,20.2-11.1,22.9-22.9"/>
		<path class="st4" d="M53.6,10.7c-4-4.3-9.3-7.5-15.5-8.9c-11-2.5-22,1.2-29.2,8.9"/>
	</g>
	<path class="st10" d="M19.9,51.8c0.8,0.8,2,0.8,2.8,0l2.1-2.1c0.8-0.8,0.6-2.2-0.4-3.2c-1-1-2.3-1.2-3.2-0.4
		c0.8-0.8,0.6-2.2-0.4-3.2c-1-1-2.3-1.2-3.2-0.4c0.8-0.8,0.6-2.2-0.4-3.2c-1-1-2.3-1.2-3.2-0.4c0.8-0.8,0.6-2.2-0.4-3.2
		c-1-1-2.3-1.2-3.2-0.4l-2.1,2.1c-0.8,0.8-0.8,2,0,2.8L19.9,51.8z"/>
	<g>
		<line class="st7" x1="25.4" y1="16" x2="23.4" y2="14"/>
		<line class="st7" x1="29.4" y1="14" x2="28.4" y2="11"/>
		<line class="st7" x1="33.4" y1="14" x2="34.4" y2="11"/>
		<line class="st7" x1="37.4" y1="16" x2="39.4" y2="14"/>
	</g>
</g>
</svg>
