<?xml version="1.0" encoding="utf-8"?>
<!-- Generator: Adobe Illustrator 21.0.0, SVG Export Plug-In . SVG Version: 6.00 Build 0)  -->
<svg version="1.1" id="Layer_1" xmlns="http://www.w3.org/2000/svg" xmlns:xlink="http://www.w3.org/1999/xlink" x="0px" y="0px"
	 viewBox="0 0 63 57" style="enable-background:new 0 0 63 57;" xml:space="preserve">
<style type="text/css">
	.st0{fill:none;stroke:#000000;stroke-width:2;stroke-linecap:round;stroke-linejoin:round;stroke-miterlimit:10;}
	.st1{fill:#1E201D;}
	.st2{fill:none;stroke:#000000;stroke-width:0.5;stroke-miterlimit:10;}
	.st3{fill:#E9EAEB;}
	.st4{fill:none;stroke:#BCC0C4;stroke-width:2;stroke-miterlimit:10;}
	.st5{fill:#FFFFFF;stroke:#65BFB4;stroke-width:2;stroke-miterlimit:10;}
	.st6{fill:#C1E5E1;stroke:#65BFB4;stroke-width:2;stroke-miterlimit:10;}
	.st7{fill:none;stroke:#65BFB4;stroke-width:2;stroke-miterlimit:10;}
	.st8{fill:#C1E5E1;}
	.st9{fill:#FFFFFF;}
	.st10{fill:#E9EAEB;stroke:#65BFB4;stroke-width:2;stroke-miterlimit:10;}
	.st11{fill:none;stroke:#BCC0C4;stroke-width:2;stroke-linejoin:round;stroke-miterlimit:10;}
	.st12{fill:#E9EAEB;stroke:#65BFB4;stroke-width:2;stroke-linejoin:round;stroke-miterlimit:10;}
	.st13{fill:#C1E5E1;stroke:#C1E5E1;stroke-miterlimit:10;}
	.st14{fill:none;stroke:#65BFB4;stroke-width:2;stroke-linejoin:round;stroke-miterlimit:10;}
	.st15{fill:#FFFFFF;stroke:#65BFB4;stroke-width:2;stroke-linejoin:round;stroke-miterlimit:10;}
	.st16{stroke:#231F20;stroke-width:2;stroke-linecap:round;stroke-linejoin:round;stroke-miterlimit:10;}
</style>
<g>
	<circle class="st3" cx="29" cy="19" r="19"/>
	<line class="st4" x1="19" y1="14" x2="19" y2="20"/>
	<line class="st4" x1="22" y1="17" x2="16" y2="17"/>
	<line class="st4" x1="60" y1="23" x2="60" y2="29"/>
	<line class="st4" x1="63" y1="26" x2="57" y2="26"/>
	<path class="st5" d="M10,53c0,0,17.3,0,21,0c2.9,0,13.3-3.1,14.4-3.9c1.1-0.8,7.8-8.5,9.5-10.8c-0.4-1.1-2.1-2.1-4.4-1.9
		c-2.6,0.3-5.9,5.3-6.1,5.4l-8.1,1.8c-0.3-0.1-3.1-1-5.8-1.7c-0.9-0.2-2.5-2.3-2.5-2.5c0-1,0.4-1,2-1.8c1.1-0.6,4.6-1.2,5.8-4
		c1.1-2.5,0.4-5-4.1-3.2c-1.9,0.7-9.9,3-13.3,4.4c-1.3,1.3-3.2,4-4.6,5H10V53z"/>
	<circle class="st6" cx="31.7" cy="18.4" r="4.8"/>
	<circle class="st6" cx="47" cy="8.3" r="4.8"/>
	<circle class="st6" cx="45.2" cy="27.8" r="4.8"/>
	<rect x="1" y="35" class="st6" width="10" height="21"/>
	<line class="st7" x1="6" y1="39" x2="6" y2="42"/>
	<line class="st7" x1="32" y1="9" x2="32" y2="17"/>
	<line class="st7" x1="32" y1="5" x2="32" y2="7"/>
	<line class="st4" x1="57" y1="4" x2="57" y2="19"/>
</g>
</svg>
