<?xml version="1.0" encoding="utf-8"?>
<!-- Generator: Adobe Illustrator 21.0.0, SVG Export Plug-In . SVG Version: 6.00 Build 0)  -->
<svg version="1.1" id="Layer_1" xmlns="http://www.w3.org/2000/svg" xmlns:xlink="http://www.w3.org/1999/xlink" x="0px" y="0px"
	 viewBox="0 0 59 64" style="enable-background:new 0 0 59 64;" xml:space="preserve">
<style type="text/css">
	.st0{fill:none;stroke:#000000;stroke-width:2;stroke-linecap:round;stroke-linejoin:round;stroke-miterlimit:10;}
	.st1{fill:#1E201D;}
	.st2{fill:none;stroke:#000000;stroke-width:0.5;stroke-miterlimit:10;}
	.st3{fill:#E9EAEB;}
	.st4{fill:none;stroke:#BCC0C4;stroke-width:2;stroke-miterlimit:10;}
	.st5{fill:#FFFFFF;stroke:#65BFB4;stroke-width:2;stroke-miterlimit:10;}
	.st6{fill:#C1E5E1;stroke:#65BFB4;stroke-width:2;stroke-miterlimit:10;}
	.st7{fill:none;stroke:#65BFB4;stroke-width:2;stroke-miterlimit:10;}
	.st8{fill:#C1E5E1;}
	.st9{fill:#FFFFFF;}
	.st10{fill:#E9EAEB;stroke:#65BFB4;stroke-width:2;stroke-miterlimit:10;}
	.st11{fill:none;stroke:#BCC0C4;stroke-width:2;stroke-linejoin:round;stroke-miterlimit:10;}
	.st12{fill:#E9EAEB;stroke:#65BFB4;stroke-width:2;stroke-linejoin:round;stroke-miterlimit:10;}
	.st13{fill:#C1E5E1;stroke:#C1E5E1;stroke-miterlimit:10;}
	.st14{fill:none;stroke:#65BFB4;stroke-width:2;stroke-linejoin:round;stroke-miterlimit:10;}
	.st15{fill:#FFFFFF;stroke:#65BFB4;stroke-width:2;stroke-linejoin:round;stroke-miterlimit:10;}
	.st16{stroke:#231F20;stroke-width:2;stroke-linecap:round;stroke-linejoin:round;stroke-miterlimit:10;}
</style>
<g>
	<path class="st7" d="M5,59h7c2.3,0,2.8,3,6,3c0.6,0,8,0,8,0"/>
	<path class="st7" d="M38,46l-5,0c-1.1,0-2,0.9-2,2v2c0,1.1,0.9,2,2,2h5c1.1,0,2-0.9,2-2v-2C40,46.9,39.1,46,38,46z"/>
	<path class="st7" d="M37,40h-5c-1.1,0-2,0.9-2,2v2c0,1.1,0.9,2,2,2h5c1.1,0,2-0.9,2-2v-2C39,40.9,38.1,40,37,40z"/>
	<path class="st7" d="M37,52l-5,0c-1.1,0-2,0.9-2,2v2c0,1.1,0.9,2,2,2h5c1.1,0,2-0.9,2-2v-2C39,52.9,38.1,52,37,52z"/>
	<path class="st7" d="M35,58h-5c-1.1,0-2,0.9-2,2v1c0,1.1,0.9,2,2,2h5c1.1,0,2-0.9,2-2v-1C37,58.9,36.1,58,35,58z"/>
	<rect x="1" y="40" class="st6" width="10" height="22"/>
	<path class="st7" d="M19.2,54c4.7-1.8,7.7-6.2,7.8-11c0,0,0-4.4,0-5c0-0.7,1-2.3,1-5.6c0-3.3-0.6-4.5-2-6.3c-1.4-1.8-4-1.3-4,0.5
		V28c0,4-1.5,6.6-4.1,9.6L14,42h-2"/>
	<path class="st7" d="M29,31h6l4.2,5.6C39.8,37.4,41,37,41,36v-5h3V14H17v4"/>
	<line class="st7" x1="36" y1="10" x2="36" y2="14"/>
	<path class="st7" d="M36,17v4H15l-4.2,5.6C10.2,27.4,9,27,9,26v-5H6V1h30v6"/>
	<path class="st7" d="M44,25h5l4.2,5.6C53.8,31.4,55,31,55,30v-5h3V7H26v4"/>
	<polyline class="st7" points="22,31 17,31 17,24 	"/>
	<line class="st6" x1="6" y1="43" x2="6" y2="47"/>
</g>
</svg>
