<?xml version="1.0" encoding="utf-8"?>
<!-- Generator: Adobe Illustrator 21.0.0, SVG Export Plug-In . SVG Version: 6.00 Build 0)  -->
<svg version="1.1" id="Layer_1" xmlns="http://www.w3.org/2000/svg" xmlns:xlink="http://www.w3.org/1999/xlink" x="0px" y="0px"
	 viewBox="0 0 64 49.7" style="enable-background:new 0 0 64 49.7;" xml:space="preserve">
<style type="text/css">
	.st0{fill:none;stroke:#000000;stroke-width:2;stroke-linecap:round;stroke-linejoin:round;stroke-miterlimit:10;}
	.st1{fill:#1E201D;}
	.st2{fill:none;stroke:#000000;stroke-width:0.5;stroke-miterlimit:10;}
	.st3{fill:#E9EAEB;}
	.st4{fill:none;stroke:#BCC0C4;stroke-width:2;stroke-miterlimit:10;}
	.st5{fill:#FFFFFF;stroke:#65BFB4;stroke-width:2;stroke-miterlimit:10;}
	.st6{fill:#C1E5E1;stroke:#65BFB4;stroke-width:2;stroke-miterlimit:10;}
	.st7{fill:none;stroke:#65BFB4;stroke-width:2;stroke-miterlimit:10;}
	.st8{fill:#C1E5E1;}
	.st9{fill:#FFFFFF;}
	.st10{fill:#E9EAEB;stroke:#65BFB4;stroke-width:2;stroke-miterlimit:10;}
	.st11{fill:none;stroke:#BCC0C4;stroke-width:2;stroke-linejoin:round;stroke-miterlimit:10;}
	.st12{fill:#E9EAEB;stroke:#65BFB4;stroke-width:2;stroke-linejoin:round;stroke-miterlimit:10;}
	.st13{fill:#C1E5E1;stroke:#C1E5E1;stroke-miterlimit:10;}
	.st14{fill:none;stroke:#65BFB4;stroke-width:2;stroke-linejoin:round;stroke-miterlimit:10;}
	.st15{fill:#FFFFFF;stroke:#65BFB4;stroke-width:2;stroke-linejoin:round;stroke-miterlimit:10;}
	.st16{stroke:#231F20;stroke-width:2;stroke-linecap:round;stroke-linejoin:round;stroke-miterlimit:10;}
</style>
<g>
	<circle class="st3" cx="45.5" cy="18.2" r="17.5"/>
	<path class="st4" d="M39,5.7h-9.8c-0.4-1-1.5-1.8-2.7-1.8c-0.4,0-0.7,0-1.1,0.2C24.7,2.3,23,1,21,1c-2.6,0-4.7,2.7-4.7,4.7H7"/>
	<path class="st4" d="M63,10.7h-4c-0.7-1-2-2.1-3.7-1.9c-0.7-1.2-2-2.2-3.6-2.2c-2.3,0-4.1,2-4.1,4H38"/>
	<path class="st8" d="M62,39.7c0-1.2,0.5-5.5-2.4-6.2c-0.2-0.5-1.3-2.8-2.2-4.8c-0.8-1.8-2.7-3-4.7-3H45v19h16.6c0,0,1.4-0.9,1.4-2
		C63,41.7,63.3,40.1,62,39.7z"/>
	<path class="st7" d="M45,44.7h16.6c0,0,1.4-0.9,1.4-2c0-1,0.3-2.7-1-3c0-1.2,0.5-5.5-2.4-6.2c-0.2-0.5-1.3-2.8-2.2-4.8
		c-0.8-1.8-2.7-3-4.7-3H45"/>
	<path class="st5" d="M55,33.6l-1.6-3.5c-0.1-0.3-0.4-0.4-0.7-0.4H49v5h5.3C54.9,34.7,55.3,34.1,55,33.6z"/>
	<polygon class="st9" points="13,16.7 13,24.7 13,35.7 13,44.7 45,44.7 45,16.7 	"/>
	<polyline class="st7" points="13,24.7 13,16.7 45,16.7 45,44.7 13,44.7 13,35.7 	"/>
	<line class="st7" x1="13" y1="33.7" x2="13" y2="27.7"/>
	<ellipse class="st10" cx="22" cy="44.7" rx="4" ry="4"/>
	<ellipse class="st10" cx="52" cy="44.7" rx="4" ry="4"/>
	<line class="st7" x1="23" y1="32.7" x2="4" y2="32.7"/>
	<line class="st7" x1="34" y1="24.7" x2="9" y2="24.7"/>
	<line class="st7" x1="40" y1="16.7" x2="9" y2="16.7"/>
	<line class="st7" x1="7" y1="16.7" x2="5" y2="16.7"/>
	<line class="st7" x1="3" y1="16.7" x2="1" y2="16.7"/>
	<line class="st7" x1="2" y1="32.7" x2="0" y2="32.7"/>
	<line class="st7" x1="7" y1="24.7" x2="5" y2="24.7"/>
</g>
</svg>
